<?xml version="1.0" encoding="utf-8" ?>
<svg xmlns="http://www.w3.org/2000/svg" xmlns:xlink="http://www.w3.org/1999/xlink" width="512" height="512">

	<path fill="#1A1C26" transform="scale(0.666667 0.666667)" d="M385.812 16.3061C410.175 16.6279 434.398 17.9123 458.438 22.1625C510.083 31.2935 560.867 52.5796 603.069 83.7588C610.439 89.2037 617.724 94.6974 624.405 100.98C635.413 95.8028 646.779 92.2304 658.566 89.3295C665.291 87.6744 672.241 86.0756 679.16 85.6205C681.856 85.4431 684.265 85.7396 686.319 87.6575C687.383 88.6513 688.319 90.0394 688.645 91.472C689.18 93.819 688.894 96.4303 688.727 98.8042L687.366 111.835L681.442 151.679L680.076 160.905C679.929 161.873 679.419 163.399 679.465 164.313C679.533 165.658 681.12 167.885 681.863 169.064L689.438 180.758L700.893 199.794C705.902 208.56 710.609 217.725 714.69 226.962C735.955 275.096 748.586 327.885 748.863 380.649C748.988 404.513 746.979 428.333 743.201 451.889C741.348 463.442 739.256 475.009 736.296 486.337C726.326 524.494 709.688 561.26 687.664 593.946C677.055 609.692 665.55 624.543 652.149 638.04C623.569 666.825 589.756 689.963 553.417 707.807C523.357 722.567 491.407 733.875 458.447 740.095C432.98 744.9 406.485 746.524 380.613 746.643C356.419 746.549 331.83 744.581 308.066 739.944C286.811 735.795 265.477 729.277 245.25 721.552C233.159 716.935 221.275 712.183 209.687 706.382C192.137 697.597 175.655 687.343 159.703 675.956C146.423 666.475 133.359 656.593 121.587 645.244C100.567 624.978 83.3418 601.287 68.8177 576.044C55.2398 552.445 44.2427 528.198 35.6595 502.35C30.2625 486.097 26.7444 469.12 23.9012 452.25C19.6584 427.075 17.1787 401.496 17.6922 375.938C18.5609 332.696 28.3107 287.95 44.1368 247.759C47.1432 240.124 50.1078 232.486 53.6824 225.094C60.5326 210.928 68.1037 197.029 76.411 183.662L85.6064 168.939C86.1744 167.954 87.4962 166.171 87.7082 165.089C87.9313 163.949 87.3326 162.286 87.1026 161.157L85.5136 152.229L81.0663 118.717C79.9856 110.475 78.2152 101.88 78.4085 93.5625C78.4402 92.1993 78.6575 90.9007 79.3178 89.6904C80.2461 87.989 81.788 86.3893 83.713 85.899C87.1919 85.013 91.62 85.8875 95.1496 86.4378C110.855 88.8863 128.36 94.0068 142.384 101.601L144.274 99.6262C148.708 95.1349 154.299 91.245 159.408 87.5353L186.427 69.42C229.523 43.3065 276.341 25.7184 326.483 19.555C346.224 17.1284 365.944 16.5037 385.812 16.3061Z"/>
	<path fill="#F6F7EB" transform="scale(0.666667 0.666667)" d="M177.253 311.176L185.84 315.887L183.452 318.603L181.268 321.652L177.253 311.176Z"/>
	<path fill="#D4163C" transform="scale(0.666667 0.666667)" d="M207.268 625.331C206.949 623.117 206.672 620.671 207.575 618.562C208.511 618.139 209.06 618.299 210.019 618.652C212.466 619.552 214.721 621.747 215.661 624.169C216.353 625.951 216.661 628.079 215.776 629.858L215.23 630.747C212.633 630.537 209.35 627.061 207.268 625.331Z"/>
	<path fill="#F6F7EB" transform="scale(0.666667 0.666667)" d="M198.42 324.498C200.656 324.289 203.351 324.121 205.484 324.863C207.211 325.464 209.54 326.721 210.262 328.53C210.872 330.057 210.725 331.861 210.088 333.354C208.807 336.357 206.291 337.828 203.349 338.89C201.179 339.403 198.547 339.617 196.441 338.74C194.367 337.876 192.263 335.895 191.504 333.759C191.002 332.346 191.076 330.462 191.73 329.107C193.031 326.409 195.792 325.447 198.42 324.498Z"/>
	<path fill="#F4B14E" transform="scale(0.666667 0.666667)" d="M257.538 151.482L273.643 153.529L271.776 165.34L258.457 169.585L248.25 173.773C247.444 173.338 247.422 173.335 247.054 172.5C247.388 169.476 252.329 165.876 254.435 163.665C258.221 159.689 257.669 156.515 257.538 151.482Z"/>
	<path fill="#D4163C" transform="scale(0.666667 0.666667)" d="M165.345 583.406L198.938 610.187C199.68 611.2 199.148 612.401 198.938 613.52C197.38 613.636 195.75 612.7 194.283 612.192C191.874 611.358 189.467 610.688 186.95 610.269C180.91 609.263 175.022 609.46 168.934 609.729L165.345 583.406Z"/>
	<path fill="#CDCACA" transform="scale(0.666667 0.666667)" d="M582.315 585.838C580.565 583.933 535.382 573.502 529.14 571.73C527.565 571.283 525.522 571.146 524.089 570.501C523.125 570.068 522.135 569.81 521.091 569.631L520.593 569.558L520.764 568.814C522.218 569.834 525.686 569.265 527.527 569.257C538.993 569.206 550.661 569.747 562.075 570.867C571.949 571.837 582.672 573.185 591.871 577.023C588.949 580.089 585.856 583.513 582.315 585.838Z"/>
	<path fill="#9B918F" transform="scale(0.666667 0.666667)" d="M236.528 669.938C237.446 669.716 236.977 669.756 237.938 669.823L250.384 703.684L235.356 697.493L214.927 688.476C219.937 679.735 227.247 673.665 236.528 669.938Z"/>
	<path fill="#F6F7EB" transform="scale(0.666667 0.666667)" d="M230.298 125.373C232.416 125.53 234.358 125.961 236.246 126.975C247.307 132.916 244.663 144.913 247.591 155.093L239.156 165.784L238.763 166.371L235.62 163.534L223.177 153.016C220.114 150.408 216.682 147.842 214.503 144.404C214.426 139.83 214.683 135.806 217.577 132.042C220.886 127.739 225.062 126.117 230.298 125.373Z"/>
	<path fill="#F4B14E" transform="scale(0.666667 0.666667)" d="M226.503 105.152C229.803 104.861 233.671 105.264 236.861 106.173C248.278 109.427 257.113 117.91 262.801 128.13C264.819 131.757 269.116 140.057 267.96 144.188C266.675 144.474 265.494 144.081 264.23 143.864C260.286 143.188 257.329 143.892 253.648 145.29L253.22 138.196C252.196 130.941 248.582 124.585 242.664 120.246L242.247 119.946C240.596 118.771 238.543 117.838 236.613 117.229C230.665 115.352 223.64 116.1 218.159 119.115C210.636 123.253 206.831 130.067 204.434 138.089L196.161 132.159C197.989 126.611 200.341 121.493 204.097 116.967C209.986 109.87 217.407 106.046 226.503 105.152Z"/>
	<path fill="#CDCACA" transform="scale(0.666667 0.666667)" d="M607.921 519.722L628.468 519.908C630.905 519.998 634.386 519.777 636.635 520.616C634.681 527.473 632.845 534.365 629.727 540.807C624.776 551.036 616.216 559.561 607.43 566.61C598.739 563.729 589.758 561.348 580.644 560.266C584.254 557.779 587.841 555.29 591.632 553.083C594.704 551.294 599.329 549.508 601.898 547.211L601.754 547.052C602.058 546.634 605.344 545.863 606.046 545.616C607.915 544.958 610.71 543.97 611.613 542.062C611.664 536.514 611.387 530.995 610.66 525.493C610.439 523.827 610.384 521.842 609.659 520.312C609.075 520.31 608.841 520.283 608.318 519.979L607.921 519.722Z"/>
	<path fill="#9B918F" transform="scale(0.666667 0.666667)" d="M212.742 632.479C213.332 633.121 213.802 633.743 214.27 634.478L213.938 634.908C208.724 633.884 203.807 633.293 198.466 633.862C184.544 635.346 168.207 642.682 159.224 653.569L135.253 633.081C138.981 630.638 143.27 629.092 147.453 627.613C159.726 623.27 173.12 620.358 186.188 621.719L191.379 622.557C196.858 623.796 201.989 626.312 206.991 628.801L212.742 632.479Z"/>
	<path fill="#9B918F" transform="scale(0.666667 0.666667)" d="M203.825 645.533L208.052 645.503C212.238 645.71 217.249 646.554 220.833 648.843C224.291 651.051 227.778 655.516 230.541 658.568C218.728 661.896 210.099 672.823 203.408 682.489L199.694 680.083L169.443 660.213C172.559 657.39 176.324 655.25 180.019 653.283C187.655 649.217 195.152 646.327 203.825 645.533Z"/>
	<path fill="#9B918F" transform="scale(0.666667 0.666667)" d="M658.773 247.06C656.868 265.228 654.998 283.355 651.305 301.271C648.576 314.513 644.603 327.826 640.122 340.573L630.512 365.103C628.558 369.712 626.157 374.321 624.687 379.1C623.729 376.737 622.811 374.317 621.587 372.075L618.815 367.353C618.649 367.077 618.014 366.245 617.997 365.998C617.995 365.965 618.308 365.192 618.35 365.095L623.579 353.299C632.492 330.168 638.482 305.251 642.677 280.848L644.836 264.246C645.166 260.879 645.204 257.193 645.967 253.91C651.023 252.496 654.654 250.227 658.773 247.06Z"/>
	<path fill="#CDCACA" transform="scale(0.666667 0.666667)" d="M229.141 174.864L295.647 242.78L279.176 250.753L221.742 190.775L221.725 190.582L221.821 190.485C223.45 189.11 224.2 186.35 224.999 184.406L229.141 174.864Z"/>
	<path fill="#FAE399" transform="scale(0.666667 0.666667)" d="M228.434 627.351L263.014 643.636C265.109 646.382 266.215 651.024 267.368 654.339C272.464 668.982 276.67 684.085 280.307 699.149C281.614 704.563 283.13 709.848 284.011 715.36L262.877 708.136C262.373 702.174 260.463 695.739 258.745 690.035C254.901 677.265 250.194 664.309 243.103 652.953C239.381 646.993 233.898 641.457 230.864 635.165C229.716 632.785 229.122 629.903 228.434 627.351Z"/>
	<path fill="#F6F7EB" transform="scale(0.666667 0.666667)" d="M135.964 262.047L156.199 264.463C158.266 280.434 161.7 296.562 166.259 311.995C168.277 318.828 170.148 325.53 173.901 331.651L164.412 345.944L158.267 355.3L148.006 323.268C142.176 303.615 137.625 282.486 135.964 262.047Z"/>
	<path fill="#F4B14E" transform="scale(0.666667 0.666667)" d="M382.511 163.426C418.644 163.22 454.349 166.698 488.786 178.076C496.132 180.504 503.717 183.004 510.523 186.708L500.676 197.163C464.743 184.38 426.519 177.804 388.377 177.697C388.4 176.292 388.632 174.768 388.35 173.381C387.619 169.793 384.81 166.185 382.511 163.426Z"/>
	<path fill="#CDCACA" transform="scale(0.666667 0.666667)" d="M632.645 261.938L633.287 262.312C632.811 269.085 631.554 275.923 630.432 282.62C628.098 296.553 625.116 310.628 620.668 324.058L609.399 355.223L603.674 346.69L593.653 332.144C597.045 326.562 599.139 319.581 601.128 313.387C603.546 305.853 606.219 298.436 608.027 290.718L612.933 264.042L632.645 261.938Z"/>
	<path fill="#D4163C" transform="scale(0.666667 0.666667)" d="M218.011 229.455C224.716 236.419 231.337 243.465 237.088 251.252C241.193 256.809 244.793 263.273 249.325 268.434C236.277 278.418 223.536 288.354 211.613 299.725L204.926 306.237C203.315 307.805 201.832 309.715 199.5 310.097C197.982 309.775 196.924 308.945 195.674 308.071C190.631 304.547 188.467 303.015 182.048 303.798L215.188 275.785C212.692 268.672 208.815 261.573 204.477 255.418C205.207 253.21 206.876 251.316 208.019 249.296C211.589 242.984 215.639 236.311 218.011 229.455Z"/>
	<path fill="#D4163C" transform="scale(0.666667 0.666667)" d="M389.723 199.983C413.534 200.927 437.758 203.798 460.589 210.816C466.132 212.52 471.758 214.206 476.732 217.24C474.79 221.505 471.536 224.516 468.355 227.867L460.983 236.341L460.649 236.785C459.59 236.785 458.275 236.086 457.269 235.731L451.319 233.921L440.484 231.497C423.722 228.127 407.02 226.17 389.926 225.813L389.723 199.983Z"/>
	<path fill="#F6F7EB" transform="scale(0.666667 0.666667)" d="M388.377 177.697C360.651 177.826 332.617 181.26 305.415 186.534C292.659 189.008 279.553 191.616 267.578 196.773C263.927 192.407 259.448 188.905 256.142 184.228C267.636 177.765 281.671 174.347 294.489 171.609L319.431 166.892C334.279 164.755 349.45 163.822 364.436 163.443C370.287 163.295 376.751 162.606 382.511 163.426C384.81 166.185 387.619 169.793 388.35 173.381C388.632 174.768 388.4 176.292 388.377 177.697Z"/>
	<path fill="#D4163C" transform="scale(0.666667 0.666667)" d="M371.33 200.033L379.365 199.803L379.486 226.091C360.74 226.017 342.401 228.211 324.137 232.377C318.816 233.59 313.306 234.696 308.381 237.112L307.895 237.355L303.782 232.257L288.993 216.322C294.388 213.078 300.701 211.517 306.735 209.876C327.864 204.127 349.524 201.426 371.33 200.033Z"/>
	<path fill="#D4163C" transform="scale(0.666667 0.666667)" d="M590.124 310.884C588.925 315.049 586.347 319.368 584.705 323.449C583.341 323.099 569.039 308.844 567.024 306.996L541.227 284.766C533.739 278.651 526.358 272.535 517.949 267.681L517.543 267.45C524.406 261.283 530.386 253.494 536.511 246.567L564.944 215.806C574.074 206.079 583.417 195.328 594.176 187.376C592.446 201.003 591.682 216.448 585.603 228.952C577.504 247.849 562.094 261.735 549.672 277.748C559.505 284.848 569.347 291.959 578.514 299.919L590.124 310.884Z"/>
	<path fill="#F6F7EB" transform="scale(0.666667 0.666667)" d="M485.708 249.416L469.87 242.618C473.353 240.061 476.046 236.515 479 233.387L493.433 218.797L547.154 168.852C563.946 154.276 581.539 140.903 599.805 128.24C606.397 123.671 613.085 119.304 620.069 115.354C624.679 112.747 629.325 110.241 634.408 108.684C637.797 111.196 641.24 113.634 644.028 116.835C640.773 119.753 636.934 122.035 633.254 124.376L616.279 135.225L597.742 148.793L574.125 167.238L508.906 227.174L494.153 241.439C491.43 244.098 488.723 247.098 485.708 249.416Z"/>
	<path fill="#F6F7EB" transform="scale(0.666667 0.666667)" d="M123.439 252.707L127.088 280.934C130.835 303.815 136.801 326.047 144.314 347.966L147.661 357.489C148.546 360.07 149.292 362.815 150.775 365.126L151.015 365.48C150.015 368.881 148.007 372.031 146.395 375.17C144.94 378 143.747 380.988 142.508 383.918C139.528 373.977 135.135 364.427 131.588 354.671C127.468 343.336 124.139 331.438 121.347 319.711C117.821 304.897 115.596 290.122 113.457 275.066L101.653 174.305C99.0496 154.5 94.8796 135.03 92.992 115.095C92.4324 109.184 91.8247 103.328 91.8435 97.3833C97.1647 97.5543 102.639 98.9064 107.802 100.154C129.096 105.297 148.953 115.745 167.429 127.289C189.669 141.185 210.063 156.84 229.141 174.864L224.999 184.406C224.2 186.35 223.45 189.11 221.821 190.485L221.725 190.582L200.129 171.309C177.484 151.914 152.263 133.199 124.624 121.656C119.677 119.59 112.717 116.263 107.25 116.545C105.986 117.078 105.117 118.067 104.625 119.349C103.864 121.337 103.96 124.058 103.976 126.16L104.41 138.919L105.98 174.09L111.084 225.221L112.701 240.081C113.06 243.022 113.278 246.24 114.436 248.99L123.439 252.707Z"/>
	<defs>
		<linearGradient id="gradient_0" gradientUnits="userSpaceOnUse" x1="548.18005" y1="274.91202" x2="655.06342" y2="204.75313">
			<stop offset="0" stop-color="#FEAA36"/>
			<stop offset="1" stop-color="#CADFFF"/>
		</linearGradient>
	</defs>
	<path fill="url(#gradient_0)" transform="scale(0.666667 0.666667)" d="M594.176 187.376C602.214 176.039 615.33 168.234 627.214 161.578L633.205 200.569C635.388 217.833 635.456 235.456 634.795 252.815L613.832 254.946L614.991 226.496C615.055 222.177 615.345 217.634 615.013 213.336C609.362 217.42 605.425 223.043 604.269 229.971C603.949 231.888 604.118 235.579 603.332 237.22C602.951 238.016 600.409 239.817 599.604 240.399L598.141 241.414L589.842 246.506L603.783 247.949C602.033 263.245 599.156 278.543 595.294 293.438C593.783 299.265 592.348 305.277 590.124 310.884L578.514 299.919C569.347 291.959 559.505 284.848 549.672 277.748C562.094 261.735 577.504 247.849 585.603 228.952C591.682 216.448 592.446 201.003 594.176 187.376Z"/>
	<defs>
		<linearGradient id="gradient_1" gradientUnits="userSpaceOnUse" x1="469.66556" y1="687.88153" x2="297.96686" y2="508.7674">
			<stop offset="0" stop-color="#A29EA6"/>
			<stop offset="1" stop-color="#F4EBDA"/>
		</linearGradient>
	</defs>
	<path fill="url(#gradient_1)" transform="scale(0.666667 0.666667)" d="M551.103 595.239C555.076 595.049 558.872 595.204 562.832 595.486C564.867 595.63 567.054 595.663 568.977 596.386C565.942 597.777 563.144 599.84 560.326 601.628L544.296 611.201C541.913 612.483 539.483 613.946 536.951 614.896C535.017 616.278 532.428 617.236 530.265 618.264L518.67 623.912C478.568 643.862 435.335 657.195 390.327 658.348C359.024 659.15 326.589 653.608 297 643.533C275.957 636.368 255.567 626.905 235.774 616.83L217.957 607.345C212.956 604.563 208.422 602.299 204.236 598.319L205.812 598.085L209.424 597.59C211.28 597.348 213.133 597.252 215.004 597.211C230.233 596.88 244.452 603.978 258.188 609.747L288.856 622.234L332.438 636.8C343.429 639.976 354.493 642.882 365.829 644.539C382.24 646.938 399.551 645.889 415.707 642.223L429.375 638.923L441.698 635.257C442.406 635.047 444.896 634.131 445.475 634.258L506.186 611.394C508.16 610.015 511.426 609.125 513.671 608.126C525.792 602.733 537.752 596.746 551.103 595.239Z"/>
	<path fill="#9B918F" transform="scale(0.666667 0.666667)" d="M551.103 595.239C555.076 595.049 558.872 595.204 562.832 595.486C564.867 595.63 567.054 595.663 568.977 596.386C565.942 597.777 563.144 599.84 560.326 601.628L544.296 611.201C541.913 612.483 539.483 613.946 536.951 614.896L536.114 614.78L539.25 613.125C539.945 612.675 541.108 611.902 541.887 611.707L542.25 611.625L547.5 608.625L548.906 607.781L550.729 606.732L552.75 605.438L553.125 605.158C553.574 604.908 553.945 604.842 554.414 604.529L556.547 603.064C556.94 602.77 557.295 602.506 557.719 602.252C558.541 602.249 559.148 601.663 559.77 601.154L560.719 600.377L561.188 600.375L561.844 599.627C562.533 599.624 562.202 599.735 562.781 599.156L562.775 598.038L561.398 597.17L561.195 596.458C558.534 595.021 554.676 596.64 551.524 595.415L551.103 595.239Z"/>
	<path fill="#D4163C" transform="scale(0.666667 0.666667)" d="M123.439 252.707L114.436 248.99C113.278 246.24 113.06 243.022 112.701 240.081L111.084 225.221L105.98 174.09L104.41 138.919L103.976 126.16C103.96 124.058 103.864 121.337 104.625 119.349C105.117 118.067 105.986 117.078 107.25 116.545C112.717 116.263 119.677 119.59 124.624 121.656C152.263 133.199 177.484 151.914 200.129 171.309L221.725 190.582L221.742 190.775L279.176 250.753L258.859 262.138L213.966 209.092C206.17 200.879 197.891 192.625 189.192 185.375L181.448 179.251C180.594 178.634 178.17 177.342 177.659 176.571C177.361 176.12 177.144 174.686 176.964 174.1C176.473 172.505 175.847 171.531 174.678 170.333C171.667 167.25 167.605 164.851 163.875 162.746C157.521 159.158 151.017 156.162 144.3 153.32C141.553 152.158 137.492 150.032 134.503 149.985C134.082 149.979 133.966 150.016 133.519 150.079C130.582 153.465 129.865 161.792 129.061 166.221C125.754 184.436 123.263 202.787 122.877 221.32L123.439 252.707Z"/>
	<path fill="#CDCACA" transform="scale(0.666667 0.666667)" d="M541.24 301.069C544.597 303.611 547.574 306.688 550.686 309.519L568.481 326.398C581.279 339.498 593.555 353.506 603.448 368.967C618.048 391.785 627.404 418.229 633.071 444.609C610.891 449.746 590.174 458.397 570.294 469.437L550.68 481.02L531.454 491.554C531.354 491.269 531.129 491 531.154 490.699C531.161 490.615 531.977 489.74 532.05 489.657C534.825 486.526 538.029 483.698 540.928 480.668C558.963 461.821 567.465 437.52 572.32 412.412L589.291 414.087L581.481 405.412C582.928 401.38 558.954 349.109 555.87 341.606L545.479 314.387C543.978 310.067 542.134 305.548 541.24 301.069Z"/>
	<path fill="#F6F7EB" transform="scale(0.666667 0.666667)" d="M182.048 303.798C180.718 304.735 178.292 307.127 176.81 307.376L168.565 268.573C167.282 261.721 165.708 254.876 165.165 247.918L178.685 246.083L168.72 238.829C167.973 238.319 166.086 237.117 165.635 236.388C164.54 234.619 164.56 230.27 164.126 228.095C162.891 221.899 157.739 217.336 152.721 213.945L154.849 254.303C147.94 254.607 141.186 253.298 134.337 252.653L133.92 229.875C134.155 216.074 135.662 202.428 137.325 188.744C138.423 179.702 139.425 170.569 141.188 161.628C151.009 165.841 160.135 171.423 167.938 178.756L178.573 190.051L218.011 229.455C215.639 236.311 211.589 242.984 208.019 249.296C206.876 251.316 205.207 253.21 204.477 255.418C208.815 261.573 212.692 268.672 215.188 275.785L182.048 303.798Z"/>
	<path fill="#FE8568" transform="scale(0.666667 0.666667)" d="M178.573 190.051L218.011 229.455C215.639 236.311 211.589 242.984 208.019 249.296C206.876 251.316 205.207 253.21 204.477 255.418L203.911 254.858C187.582 238.302 178.537 213.048 178.573 190.051Z"/>
	<path fill="#D4163C" transform="scale(0.666667 0.666667)" d="M634.408 108.684L646.875 104.259L665.778 99.3045C669.12 98.418 673.725 96.4294 677.062 96.8564C678.604 99.4056 674.3 117.988 673.603 122.062C667.967 155.032 666.567 188.504 662.043 221.59L659.943 239.443C659.612 241.902 659.52 244.7 658.773 247.06C654.654 250.227 651.023 252.496 645.967 253.91L646.344 251.438C646.972 244.737 646.965 237.903 646.962 231.179C646.953 208.992 644.27 186.839 638.846 165.326C637.835 161.318 636.825 154.655 634.105 151.547C633.523 150.881 632.957 150.542 632.025 150.535C626.202 150.487 602.562 162.993 597.322 167.214C595.789 168.448 593.867 170.227 593.12 172.055C592.745 172.973 592.65 173.977 592.16 174.856C591.207 176.567 589.421 178.121 588.023 179.462L576.524 189.823L556.639 209.164L507.78 261.642L485.708 249.416C488.723 247.098 491.43 244.098 494.153 241.439L508.906 227.174L574.125 167.238L597.742 148.793L616.279 135.225L633.254 124.376C636.934 122.035 640.773 119.753 644.028 116.835C641.24 113.634 637.797 111.196 634.408 108.684Z"/>
	<path fill="#F6F7EB" transform="scale(0.666667 0.666667)" d="M351.061 155.223C344.312 155.235 337.398 155.928 330.685 156.599C314.462 158.221 298.405 161.037 282.447 164.332C282.468 159.413 283.173 153.062 282.054 148.284C281.644 146.536 280.462 145.863 279.017 144.963C278.125 144.408 277.784 141.365 277.547 140.218C276.38 134.55 274.063 128.969 271.462 123.819C265.15 111.318 253.822 100.769 240.367 96.4225C230.469 93.2248 219.909 93.868 210.65 98.6706C199.391 104.511 190.794 115.137 186.958 127.174C185.905 126.712 184.874 125.61 183.938 124.909L177.585 120.576L165.905 113.647C164.18 112.696 161.665 111.891 160.209 110.65C183.352 92.0783 208.827 75.6924 235.905 63.4136C260.546 52.24 286.593 44.4681 313.245 39.8822C328.56 37.247 343.972 35.938 359.444 34.6812C368.282 66.4301 369.841 97.5818 360.33 129.415L356.021 142.296L352.253 151.778C351.889 152.749 351.163 154.214 351.061 155.223Z"/>
	<path fill="#D4163C" transform="scale(0.666667 0.666667)" d="M410.209 669.002C427.71 666.966 445.659 663.834 462.686 659.3C499.407 649.522 535.495 633.154 567.438 612.621C576.647 606.702 585.519 600.162 594.147 593.432L601.986 587.158C603.153 586.205 604.426 584.742 605.75 584.074L611.994 587.618L609.686 605.569C606.377 624.136 599.708 642.141 590.979 658.841C589.46 661.748 587.644 666.774 585.113 668.679L584.625 669.031C576.431 675.305 566.944 680.127 557.885 685.044C540.259 694.61 521.294 702.868 502.262 709.195L478.977 715.89C466.798 719.197 454.744 722.236 442.237 724.043C424.279 726.636 406.179 727.36 388.061 727.651C374.932 727.861 361.475 728.358 348.408 726.901L347.052 726.723C342.88 726.959 337.973 725.747 333.833 725.192C325.956 724.135 317.933 723.436 310.149 721.813L294.399 717.686L276.933 650.192L337.398 666.023C353.974 668.509 370.333 670.248 387.125 670.108L402 669.592C404.664 669.424 407.559 668.904 410.209 669.002Z"/>
	<path fill="#D4163C" transform="scale(0.666667 0.666667)" d="M359.444 34.6812C414.683 30.4921 472.042 38.7644 523.347 59.7873C535.149 64.6234 546.556 70.9078 557.995 76.5608C568.555 82.2976 578.849 88.8855 588.634 95.8632C594.98 100.388 601.439 106.294 608.451 109.669L586.916 123.607C569.771 135.456 553.349 148.522 537.837 162.42C531.532 168.07 524.605 173.991 519.338 180.654C513.063 176.647 506.17 173.685 499.125 171.32C495.8 170.204 492.072 169.358 488.906 167.894C487.602 167.893 485.667 167.053 484.38 166.692L472.581 163.522C463.674 161.337 454.762 159.485 445.684 158.158C424.209 155.018 402.141 153.873 380.447 154.173L351.061 155.223C351.163 154.214 351.889 152.749 352.253 151.778L356.021 142.296L360.33 129.415C369.841 97.5818 368.282 66.4301 359.444 34.6812Z"/>
	<path fill="#D4163C" transform="scale(0.666667 0.666667)" d="M676.617 194.812L677.011 194.909L688.392 214.179C694.058 224.548 698.127 235.363 702.579 246.274C707.164 257.509 711.63 269.033 715.109 280.659C719.262 294.54 722.28 308.941 724.746 323.208C728.376 344.213 730.599 365.798 730.707 387.124C730.888 422.672 725.547 458.841 715.481 492.923C708.814 515.497 699.624 536.874 688.679 557.676C685.481 563.754 682.341 570.015 678.656 575.812C671.137 587.644 662.439 598.736 653.468 609.486C644.126 620.682 634.642 630.996 623.634 640.57C616.757 646.55 609.884 653.308 601.849 657.685L608.93 642.351C613.105 632.533 616.311 622.566 618.75 612.188L623.903 575.051L620.315 572.273C623.392 568.323 627.78 565.191 631.163 561.414C641.005 550.425 645.604 536.7 649.302 522.701C658.682 524.199 668.106 526.14 677.626 526.251C677.719 523.471 678.352 519.568 677.544 516.938C674.552 514.757 668.802 513.992 665.171 513.032L651.359 508.988C651.368 506.772 651.221 502.988 651.964 500.952L669.966 502.244L683.404 503.627C685.64 503.875 688.735 504.496 690.883 504.011C691.801 500.447 692.733 497.054 694.267 493.698C691.594 492.605 688.429 492.313 685.587 491.841C675.014 490.087 664.643 489.435 653.941 489.244L649.35 453.47L656.642 452.557C659.369 452.105 662.685 451.649 664.312 449.138C665.141 447.861 665.437 445.666 665.066 444.204C664.748 442.957 664.078 442.065 662.929 441.475C658.554 439.231 648.988 441.742 644.477 443.149C642.118 432.198 639.861 421.455 636.621 410.716L632.469 396.425C632.255 395.61 631.52 393.784 631.584 393.002C631.648 392.223 632.47 390.847 632.797 390.063L637.247 380.167L647.642 355.615C652.146 344.033 655.969 332.028 659.287 320.051C666.696 293.307 668.723 265.586 671.656 238.101L676.617 194.812Z"/>
	<path fill="#D4163C" transform="scale(0.666667 0.666667)" d="M90.8298 196.262C93.337 206.483 93.7094 217.645 95.1368 228.099L101.523 271.81C103.996 289.82 106.119 308.386 110.811 325.98C115.402 343.191 121.129 360.286 128.059 376.698L134.052 389.126C134.509 389.983 136.667 393.277 136.68 394.011C136.697 394.95 135.709 397.095 135.406 398.062L129.191 416.705C126.541 425.095 123.8 433.861 122.319 442.54C121.663 442.564 121.921 442.602 121.315 442.448C117.807 441.559 114.236 441.315 110.625 441.202C109.054 441.153 107.001 441.041 105.562 441.732C104.404 442.288 103.124 443.62 102.77 444.897C102.421 446.16 102.554 448.016 103.32 449.105C105.903 452.777 114.571 453.82 118.722 454.617L114.553 488.747C113.263 489.254 111.45 489.108 110.052 489.196L100.504 489.989L74.7373 492.779C76.0798 497.118 77.2678 501.273 77.9516 505.779C90.3615 502.814 103.502 502.179 116.154 500.563L117.715 509.647C112.304 510.552 92.7235 514.041 89.5617 517.312C89.3409 520.256 90.3816 523.399 91.271 526.181C93.1992 526.521 95.9285 525.813 97.8806 525.507L112.01 523.188C114.898 522.733 117.82 522.553 120.734 522.357C122.719 528.268 124.495 534.197 127.099 539.881C132.754 552.222 141.451 562.208 151.342 571.322C149.919 571.952 148.772 572.749 147.532 573.684C146.407 574.991 145.346 576.666 145.279 578.438C145.194 580.714 145.953 582.157 147.497 583.742C149.661 584.281 152.614 583.613 154.84 583.366L159.418 611.686C157.721 612.884 152.703 613.471 150.54 614.078C142.448 616.348 133.577 619.001 126.606 623.864L126.175 624.169C103.285 599.932 86.1067 571.718 71.7397 541.804C59.8998 517.152 49.9021 490.916 44.4067 464.06C35.724 421.628 33.0333 378.225 39.3383 335.227C42.1995 315.714 47.0765 296.484 52.9972 277.695C62.1109 248.773 74.0755 221.633 90.8298 196.262Z"/>
	<path fill="#F6F7EB" transform="scale(0.666667 0.666667)" d="M243.831 498.254C242.226 499.072 234.699 493.665 232.844 492.449C216.603 481.804 200 470.661 182.576 462.051C167.271 454.49 150.765 448.801 133.974 445.7C142.484 407.382 159.435 372.482 182.767 340.997C184.01 342.647 185.431 344.344 187.1 345.582C191.368 348.746 196.534 351.067 201.938 350.244C207.66 349.373 213.238 345.682 216.52 340.949C219.973 335.97 221.734 327.873 220.648 321.868L220.552 321.375C219.898 317.668 218.278 315.335 216.179 312.297C217.411 310.307 219.069 308.688 220.734 307.063C237.216 290.981 255.17 278.331 275.189 267.038C294.67 256.049 315.473 246.836 337.394 242.062C355.027 238.223 372.776 237.15 390.772 237.412C410.202 237.695 430.084 241.071 448.621 246.872C462.957 251.359 476.564 257.904 489.782 264.965C508.301 274.859 526.486 285.917 541.24 301.069C542.134 305.548 543.978 310.067 545.479 314.387L555.87 341.606C558.954 349.109 582.928 401.38 581.481 405.412L589.291 414.087L572.32 412.412C567.465 437.52 558.963 461.821 540.928 480.668C538.029 483.698 534.825 486.526 532.05 489.657C531.977 489.74 531.161 490.615 531.154 490.699C531.129 491 531.354 491.269 531.454 491.554C528.551 493.737 525.328 495.477 522.168 497.256C505.648 506.557 486.352 510.975 467.534 512.388C463.94 512.657 460.276 512.424 456.679 512.273C455.214 512.212 453.567 511.808 452.139 512.082C467.601 518.191 487.092 519.896 503.415 516.418C509.62 515.095 515.466 512.869 521.273 510.35C533.791 504.921 545.343 497.452 556.978 490.389C571.843 481.364 586.883 472.429 603 465.796C613.842 461.334 625.173 458.167 636.643 455.793L640.094 489.642C632.532 489.984 624.956 490.396 617.505 491.81C611.156 493.015 605.133 494.954 599.059 497.111C602.973 497.517 606.3 497.546 610.145 498.699C604.148 499.771 597.517 498.899 591.41 499.195C596.293 503.366 600.924 507.269 604.439 512.722C605.843 514.901 606.835 517.372 607.921 519.722L608.318 519.979C608.841 520.283 609.075 520.31 609.659 520.312C610.384 521.842 610.439 523.827 610.66 525.493C611.387 530.995 611.664 536.514 611.613 542.062C610.71 543.97 607.915 544.958 606.046 545.616C605.344 545.863 602.058 546.634 601.754 547.052C586.621 548.837 571.024 549.858 556.21 553.546C548.859 555.376 541.788 558.092 534.845 561.085C530.12 563.122 524.736 565.517 520.764 568.814L520.593 569.558L521.091 569.631C522.135 569.81 523.125 570.068 524.089 570.501C525.522 571.146 527.565 571.283 529.14 571.73C535.382 573.502 580.565 583.933 582.315 585.838L574.85 592.211C573.081 593.741 571.208 595.576 568.977 596.386C567.054 595.663 564.867 595.63 562.832 595.486C558.872 595.204 555.076 595.049 551.103 595.239C537.752 596.746 525.792 602.733 513.671 608.126C511.426 609.125 508.16 610.015 506.186 611.394L445.475 634.258C444.896 634.131 442.406 635.047 441.698 635.257L429.375 638.923L415.707 642.223C399.551 645.889 382.24 646.938 365.829 644.539C354.493 642.882 343.429 639.976 332.438 636.8L288.856 622.234L258.188 609.747C244.452 603.978 230.233 596.88 215.004 597.211C213.133 597.252 211.28 597.348 209.424 597.59L205.812 598.085L204.236 598.319C201.611 597.514 199.169 595.87 196.874 594.399C193.458 592.21 190.099 589.982 187.022 587.328L186.942 586.225C186.696 584.527 185.058 583.253 183.916 582.036C182.252 580.261 180.705 578.5 179.281 576.521C194.027 571.426 208.741 570.044 224.182 569.079C231.165 568.643 238.105 568.118 245.106 568.183L248.25 567.366L248.437 566.845C245.556 564.698 241.812 563.232 238.594 561.62C221.051 552.832 203.033 548.651 183.471 548.106L197.54 558.544L163.41 566.397C160.511 563.213 156.882 560.542 153.798 557.513C148.834 552.636 144.226 547.354 140.756 541.291C136.983 534.7 134.722 527.757 132.514 520.537C135.187 520.438 161.259 519.509 161.46 519.377C161.682 519.232 162.405 517.8 162.588 517.491C163.848 515.375 164.896 513.073 166.328 511.072C169.413 506.76 173.111 503.223 177.223 499.92L172.687 499.951C170.608 499.918 159.881 500.189 158.795 499.066C160.408 497.107 163.13 497.064 165.481 496.651C160.766 493.948 155.3 492.808 150 491.877C142.551 490.568 135.276 489.807 127.719 489.718C127.936 478.916 129.683 467.018 132.135 456.524C140.605 458.277 149.264 460.072 157.5 462.751C166.667 465.732 175.507 469.79 184.01 474.311C209.748 487.997 232.475 506.949 260.986 514.934C274.89 518.828 289.461 519.943 303.766 517.805C309.485 516.949 315.201 515.696 320.266 512.797L320.775 512.503C319.011 512.168 316.959 512.461 315.153 512.459L303.684 512.201C294.263 511.806 284.762 510.183 275.549 508.25C270.538 507.199 265.445 506.039 260.598 504.38L249.75 500.22C248.037 499.503 245.706 498.075 243.831 498.254Z"/>
	<path fill="#1A1C26" transform="scale(0.666667 0.666667)" d="M305.937 551.113C310.834 552.746 315.618 555.176 318.828 559.361C319.971 560.851 320.831 562.717 321.71 564.376C315.891 560.974 310.452 556.107 305.937 551.113Z"/>
	<path fill="#1A1C26" transform="scale(0.666667 0.666667)" d="M465.407 552.188L466.137 552.393C465.178 553.825 463.236 555.038 461.876 556.104C458.299 558.906 454.728 561.779 450.871 564.188L450.125 564.156L451.393 562.343C454.822 557.565 459.436 553.172 465.407 552.188Z"/>
	<path fill="#1A1C26" transform="scale(0.666667 0.666667)" d="M348.888 546.562C349.443 546.465 349.942 546.416 350.504 546.505C351.906 546.724 353.206 547.437 353.99 548.654C354.617 549.628 354.608 551.041 354.301 552.125C353.867 553.655 352.894 554.435 351.568 555.188C350.746 555.34 350.042 555.456 349.213 555.269C348.05 555.007 347.135 554.238 346.562 553.204C346.03 552.246 345.952 550.449 346.255 549.417C346.674 547.986 347.623 547.224 348.888 546.562Z"/>
	<path fill="#1A1C26" transform="scale(0.666667 0.666667)" d="M421.267 546.938C422.043 546.685 422.745 546.572 423.562 546.716C424.735 546.923 426.187 548.048 426.653 549.149C427.079 550.156 426.918 551.896 426.547 552.906C426.017 554.348 425.077 554.994 423.721 555.562C423.273 555.639 422.893 555.704 422.438 555.642C420.761 555.413 419.761 554.719 418.688 553.467C418.31 552.341 418.063 551.386 418.406 550.21C418.856 548.666 419.955 547.751 421.267 546.938Z"/>
	<path fill="#1A1C26" transform="scale(0.666667 0.666667)" d="M423.069 594.562L423.763 594.46L424.076 594.733C415.721 601.396 405.15 606.48 394.566 608.223C380.201 610.588 365.947 606.62 354.144 598.318L350.153 595.074C352.778 595.837 355.422 597.463 357.974 598.533C363.324 600.775 369.162 602.846 374.887 603.853C387.205 606.019 399.269 603.839 410.923 599.64C415.044 598.155 419.007 596.212 423.069 594.562Z"/>
	<path fill="#1A1C26" transform="scale(0.666667 0.666667)" d="M382.33 515.025C391.119 514.489 400.685 517.271 408.878 520.258L408.199 530.75C408.137 531.249 408.091 532.48 407.877 532.896C407.788 533.069 406.818 533.637 406.652 533.744C404.468 535.158 401.886 536.095 399.605 537.382C394.89 540.044 390.673 543.608 386.433 546.956C385.973 547.221 385.425 547.416 384.938 547.635C384.21 547.622 383.787 547.557 383.162 547.149C380.351 545.312 377.875 542.889 375.125 540.939C370.664 537.777 365.767 535.146 361.01 532.458L360.643 519.427C367.785 517.468 374.954 515.773 382.33 515.025Z"/>
	<path fill="#F6F7EB" transform="scale(0.666667 0.666667)" d="M381.594 517.614C386.772 517.034 393.174 517.388 397.866 519.81L398.062 520.445C395.45 521.676 392.009 521.555 389.158 521.733C383.085 522.366 376.678 521.932 370.7 520.825C374.236 518.954 377.693 518.21 381.594 517.614Z"/>
	<path fill="#1A1C26" transform="scale(0.666667 0.666667)" d="M384.499 549.938C384.767 549.937 385.106 549.753 385.302 549.936C385.431 550.056 385.779 551.425 385.855 551.673C386.645 554.246 386.92 557.059 387.931 559.544C388.671 561.363 389.965 562.911 391.414 564.215C395.793 568.154 402.288 570.884 407.777 572.813C412.038 574.311 416.548 575.872 421.09 576.193C427.757 576.664 435.317 574.071 441.375 571.533C444.604 570.179 447.885 568.273 451.251 567.381C454.898 566.414 459.478 566.498 463.265 566.309C458.512 568.063 453.771 569.711 449.145 571.79C440.391 575.726 431.252 581.522 421.618 582.85C408.441 584.667 395.682 579.557 385.332 571.688L384.668 571.281C379.911 574.157 376.131 577.396 370.894 579.595C364.689 582.201 356.799 584.236 350.03 583.291C342.509 582.241 335.109 578.355 328.253 575.225L307.308 566.241C311.239 566.475 315.626 566.525 319.46 567.42C325.566 568.844 331.617 572.052 337.581 574.133C341.477 575.493 345.523 576.347 349.668 575.965C356.662 575.321 364.747 571.415 371.028 568.345C381.839 563.06 380.913 560.497 384.499 549.938Z"/>
	<path fill="#1A1C26" transform="scale(0.666667 0.666667)" d="M212.201 382.415C221.173 373.506 231.331 365.968 241.288 358.218C242.474 357.295 245.919 353.869 247.133 353.824C247.951 353.794 249.365 354.385 250.175 354.609L261.018 358.116C285.903 367.28 307.361 381.03 322.773 402.855C333.328 417.803 337.649 435.54 339.807 453.472C338.242 451.878 337.43 449.657 336.486 447.667L333.029 440.838C327.431 430.307 322.307 419.297 315.701 409.348C310.004 400.769 302.692 392.629 294.682 386.134C283.497 377.063 268.823 369.827 254.838 366.466C253.536 366.153 250.833 365.203 249.562 365.522L249.074 365.719C245.037 367.229 241.354 369.674 237.495 371.607L219.866 379.737C217.994 380.572 214.934 382.417 212.891 382.437L212.201 382.415Z"/>
	<path fill="#1A1C26" transform="scale(0.666667 0.666667)" d="M427.074 463.567C428.434 444.487 432.431 424.547 442.08 407.84C458.97 378.598 490.728 363.074 522.202 354.518L563.154 387.616L562.737 387.604C561.545 387.408 560.147 386.133 559.125 385.469L552.086 381.252L527.997 369.056C526.956 368.488 520.626 364.426 519.963 364.364C519.294 364.301 517.246 365.222 516.531 365.452C504.45 369.337 492.433 374.336 481.551 380.881C464.823 390.941 453.683 405.994 444.493 422.865C439.933 431.236 435.869 439.827 432.554 448.769L428.71 459.462C428.278 460.725 428.03 462.654 427.074 463.567Z"/>
	<path fill="#1A1C26" transform="scale(0.666667 0.666667)" d="M376.733 257.392C381.103 257.072 385.637 256.98 390.001 257.44C404.953 259.016 418.728 266.461 428.061 278.289C438.345 291.324 442.076 306.747 440.087 323.078C436.322 354 412.354 379.33 388.911 397.785L384.096 401.473C381.771 400.369 379.766 398.94 377.748 397.363C354.901 379.511 331.052 354.856 327.617 324.722C325.714 308.027 328.889 290.445 339.6 277.113C349.069 265.329 361.888 259.06 376.733 257.392Z"/>
	<defs>
		<linearGradient id="gradient_2" gradientUnits="userSpaceOnUse" x1="424.90598" y1="317.01559" x2="342.26315" y2="306.09647">
			<stop offset="0" stop-color="#D0CDCE"/>
			<stop offset="1" stop-color="white"/>
		</linearGradient>
	</defs>
	<path fill="url(#gradient_2)" transform="scale(0.666667 0.666667)" d="M388.843 351.725C381.243 352.842 373.514 351.669 366.464 348.653C356.9 344.562 348.306 336.514 344.481 326.726C340.719 317.099 341.137 305.794 345.364 296.378C349.827 286.439 359.016 277.456 369.279 273.652C379.809 269.75 391.802 270.789 401.87 275.483C410.837 278.981 418.55 287.97 422.335 296.596C426.462 306 426.396 317.084 422.645 326.601C418.88 336.155 411.338 344.09 401.851 348.095C397.635 349.875 393.323 350.883 388.843 351.725Z"/>
	<path fill="#1A1C26" transform="scale(0.666667 0.666667)" d="M380.327 280.688L380.744 281.109C381.073 284.533 380.854 288.117 380.835 291.564L380.725 309.424L369.758 309.507C368.464 309.542 366.735 309.365 365.573 309.875L365.464 314.195L381.012 314.439L380.599 343.517C377.382 342.671 374.46 341.595 371.479 340.118L368.721 338.553C361.488 334.228 355.23 327.046 353.275 318.697C351.545 311.308 353.057 302.845 357.147 296.484C362.481 288.188 370.804 282.783 380.327 280.688Z"/>
	<path fill="#1A1C26" transform="scale(0.666667 0.666667)" d="M388.56 344.152C388.048 340.605 388.267 336.814 388.241 333.225L388.123 314.307L403.269 314.207L403.478 309.365L388.058 309.42L388.498 280.378L397.433 283.334C405.603 287.832 412.438 292.721 415.208 302.154C417.758 310.839 416.058 320.068 411.68 327.826C406.755 336.553 397.664 341.07 388.56 344.152Z"/>
	<path fill="#1A1C26" transform="scale(0.666667 0.666667)" d="M427.074 463.567C428.03 462.654 428.278 460.725 428.71 459.462L432.554 448.769C435.869 439.827 439.933 431.236 444.493 422.865C453.683 405.994 464.823 390.941 481.551 380.881C492.433 374.336 504.45 369.337 516.531 365.452C517.246 365.222 519.294 364.301 519.963 364.364C520.626 364.426 526.956 368.488 527.997 369.056L552.086 381.252L559.125 385.469C560.147 386.133 561.545 387.408 562.737 387.604L563.154 387.616L570.919 395.698L581.481 405.412L589.291 414.087L572.32 412.412C567.465 437.52 558.963 461.821 540.928 480.668C538.029 483.698 534.825 486.526 532.05 489.657C531.977 489.74 531.161 490.615 531.154 490.699C531.129 491 531.354 491.269 531.454 491.554C528.551 493.737 525.328 495.477 522.168 497.256C505.648 506.557 486.352 510.975 467.534 512.388C463.94 512.657 460.276 512.424 456.679 512.273C455.214 512.212 453.567 511.808 452.139 512.082C444.584 509.495 436.902 502.791 432.662 496.113C428.036 488.827 426.375 479.671 426.491 471.148C426.525 468.649 426.533 466.005 427.074 463.567Z"/>
	<path fill="#F4B14E" transform="scale(0.666667 0.666667)" d="M490.671 456.126C492.998 461.937 494.928 467.939 496.772 473.919C498.455 479.379 500.1 484.649 500.966 490.318C490.872 493.626 479.696 494.811 469.125 495.458C463.394 495.809 457.343 496.07 451.624 495.532L451.807 495.341C455.519 491.949 458.368 486.995 461.81 483.197C470.717 473.369 480.332 464.432 490.671 456.126Z"/>
	<path fill="#F6F7EB" transform="scale(0.666667 0.666667)" d="M451.624 495.532C449.516 495.382 444.496 495.242 442.804 494.103L443.87 488.025C445.508 480.002 448.516 472.083 452.023 464.697C458.725 450.584 467.732 437.037 480.922 428.29L490.671 456.126C480.332 464.432 470.717 473.369 461.81 483.197C458.368 486.995 455.519 491.949 451.807 495.341L451.624 495.532Z"/>
	<path fill="#F4B14E" transform="scale(0.666667 0.666667)" d="M539.078 463.171C529.904 475.808 518.524 483.398 504.397 489.539L510.362 402.188C524.666 401.366 540.13 405.304 553.931 408.807C552.049 420.528 551.024 432.152 547.598 443.596C546.502 447.257 545.175 450.878 543.562 454.343L540.357 460.531C539.952 461.257 539.094 462.346 539.078 463.171Z"/>
	<path fill="#D4163C" transform="scale(0.666667 0.666667)" d="M427.074 463.567C428.03 462.654 428.278 460.725 428.71 459.462L432.554 448.769C435.869 439.827 439.933 431.236 444.493 422.865C453.683 405.994 464.823 390.941 481.551 380.881C492.433 374.336 504.45 369.337 516.531 365.452C517.246 365.222 519.294 364.301 519.963 364.364C520.626 364.426 526.956 368.488 527.997 369.056L552.086 381.252L559.125 385.469C560.147 386.133 561.545 387.408 562.737 387.604L563.154 387.616L570.919 395.698L570.796 397.688C570.531 397.855 570.299 398.095 570 398.191C568.892 398.546 566.284 397.909 565.119 397.71L551.938 395.398L530.438 392.263C525.113 391.711 519.369 391.337 514.062 392.265C506.806 393.532 499.331 399.074 493.343 403.156C487.285 407.285 481.127 411.368 475.579 416.179C459.213 430.371 446.426 450.75 441.651 471.894C440.06 478.94 437.776 491.828 441.804 498.064C444.558 502.329 449.972 504.415 454.77 505.305C462.905 506.814 471.905 505.784 480 504.484C493.414 502.328 508.318 498.803 519.538 490.748C526.886 485.472 531.605 477.81 535.871 470.021C536.993 467.973 538.591 465.454 539.078 463.171C539.094 462.346 539.952 461.257 540.357 460.531L543.562 454.343C545.175 450.878 546.502 447.257 547.598 443.596C551.024 432.152 552.049 420.528 553.931 408.807L572.32 412.412C567.465 437.52 558.963 461.821 540.928 480.668C538.029 483.698 534.825 486.526 532.05 489.657C531.977 489.74 531.161 490.615 531.154 490.699C531.129 491 531.354 491.269 531.454 491.554C528.551 493.737 525.328 495.477 522.168 497.256C505.648 506.557 486.352 510.975 467.534 512.388C463.94 512.657 460.276 512.424 456.679 512.273C455.214 512.212 453.567 511.808 452.139 512.082C444.584 509.495 436.902 502.791 432.662 496.113C428.036 488.827 426.375 479.671 426.491 471.148C426.525 468.649 426.533 466.005 427.074 463.567Z"/>
	<path fill="#1A1C26" transform="scale(0.666667 0.666667)" d="M212.201 382.415L212.891 382.437C214.934 382.417 217.994 380.572 219.866 379.737L237.495 371.607C241.354 369.674 245.037 367.229 249.074 365.719L249.562 365.522C250.833 365.203 253.536 366.153 254.838 366.466C268.823 369.827 283.497 377.063 294.682 386.134C302.692 392.629 310.004 400.769 315.701 409.348C322.307 419.297 327.431 430.307 333.029 440.838L336.486 447.667C337.43 449.657 338.242 451.878 339.807 453.472C342.954 467.308 345.758 485.658 337.899 498.427C334.374 504.154 327.409 510.398 320.93 512.504L320.775 512.503C319.011 512.168 316.959 512.461 315.153 512.459L303.684 512.201C294.263 511.806 284.762 510.183 275.549 508.25C270.538 507.199 265.445 506.039 260.598 504.38L249.75 500.22C248.037 499.503 245.706 498.075 243.831 498.254C237.978 492.117 231.363 486.816 225.773 480.376C214.883 467.827 208.153 453.078 202.657 437.542C199.756 429.343 197.039 420.87 195.28 412.355L181.666 412.969L195.746 399.254L212.201 382.415Z"/>
	<path fill="#F6F7EB" transform="scale(0.666667 0.666667)" d="M288.708 428.873L291.562 430.516C306.524 439.877 316.087 457.921 322.49 473.827C325.073 480.246 327.404 486.606 328.945 493.361C323.597 494.571 318.292 495.178 312.826 495.468C299.415 496.292 285.488 493.993 272.394 491.315C272.426 487.855 273.875 483.681 274.605 480.243C278.311 462.766 282.431 445.642 288.708 428.873Z"/>
	<path fill="#F6F7EB" transform="scale(0.666667 0.666667)" d="M213.28 408.765L223.012 406.8C231.78 404.87 240.435 402.974 249.375 401.985C251.712 401.727 255.311 401.144 257.505 402.007C257.563 415.566 259.211 429.023 261.589 442.365C264.452 458.421 268.111 474.381 268.517 490.762C259.116 486.592 249.57 482.098 241.579 475.519C235.324 470.369 230.133 463.897 225.823 457.076C218.091 442.065 214.976 425.413 213.28 408.765Z"/>
	<path fill="#D4163C" transform="scale(0.666667 0.666667)" d="M212.201 382.415L212.891 382.437C214.934 382.417 217.994 380.572 219.866 379.737L237.495 371.607C241.354 369.674 245.037 367.229 249.074 365.719L249.562 365.522C250.833 365.203 253.536 366.153 254.838 366.466C268.823 369.827 283.497 377.063 294.682 386.134C302.692 392.629 310.004 400.769 315.701 409.348C322.307 419.297 327.431 430.307 333.029 440.838L336.486 447.667C337.43 449.657 338.242 451.878 339.807 453.472C342.954 467.308 345.758 485.658 337.899 498.427C334.374 504.154 327.409 510.398 320.93 512.504L320.775 512.503C319.011 512.168 316.959 512.461 315.153 512.459L303.684 512.201C294.263 511.806 284.762 510.183 275.549 508.25C270.538 507.199 265.445 506.039 260.598 504.38L249.75 500.22C248.037 499.503 245.706 498.075 243.831 498.254C237.978 492.117 231.363 486.816 225.773 480.376C214.883 467.827 208.153 453.078 202.657 437.542C199.756 429.343 197.039 420.87 195.28 412.355C196.915 411.565 200.023 411.557 201.886 411.22L213.28 408.765C214.976 425.413 218.091 442.065 225.823 457.076C225.76 457.565 225.714 457.674 225.823 458.229C226.102 459.65 227.16 461.444 227.795 462.805C232.327 472.525 239.404 481.445 247.716 488.182C257.267 495.924 267.897 499.499 279.75 502.176C291.144 504.75 302.877 505.932 314.525 504.665C319.469 504.127 326.447 502.637 329.558 498.469C332.728 494.221 331.667 486.731 330.891 481.789C329.187 470.94 326.475 460.81 321.587 450.941C313.074 433.757 297.477 418.401 282.054 407.243C277.367 403.852 272.505 400.755 267.501 397.853C263.362 395.452 258.788 392.966 254.062 391.97C249.91 391.095 244.564 392.176 240.363 392.749L219.895 395.783L195.746 399.254L212.201 382.415Z"/>
</svg>
