<?xml version="1.0" standalone="no"?>
<!DOCTYPE svg PUBLIC "-//W3C//DTD SVG 20010904//EN"
 "http://www.w3.org/TR/2001/REC-SVG-20010904/DTD/svg10.dtd">
<svg version="1.0" xmlns="http://www.w3.org/2000/svg"
 width="700.000000pt" height="700.000000pt" viewBox="0 0 700.000000 700.000000"
 preserveAspectRatio="xMidYMid meet">
<metadata>
Created by potrace 1.14, written by Peter Selinger 2001-2017
</metadata>
<g transform="translate(0.000000,700.000000) scale(0.100000,-0.100000)"
fill="#000000" stroke="none">
<path d="M3245 6843 c-511 -25 -1001 -166 -1438 -414 -127 -72 -405 -260 -464
-313 l-48 -44 -50 26 c-106 53 -362 122 -456 122 -48 0 -69 -30 -69 -102 0
-60 33 -329 66 -529 l15 -97 -74 -119 c-254 -406 -405 -777 -496 -1215 -51
-249 -64 -379 -65 -643 0 -310 32 -581 104 -895 72 -306 255 -721 457 -1030
225 -343 446 -562 828 -817 425 -285 929 -474 1460 -550 186 -26 759 -26 955
0 401 54 701 147 1085 337 495 245 871 552 1147 935 279 388 469 829 552 1280
52 280 61 389 61 730 -1 281 -4 338 -23 465 -80 512 -245 962 -505 1376 l-95
150 38 255 c21 139 41 291 45 336 7 80 6 83 -20 109 -25 25 -30 26 -88 20
-105 -12 -292 -62 -404 -108 l-72 -29 -69 58 c-418 350 -998 602 -1562 677
-229 31 -550 42 -815 29z m50 -235 c37 -163 47 -269 41 -433 -6 -183 -23 -270
-86 -445 -23 -63 -44 -123 -47 -132 -4 -15 -17 -18 -64 -18 -67 0 -335 -33
-442 -54 -133 -27 -121 -32 -122 51 -1 60 -5 77 -23 96 -12 13 -22 31 -22 40
0 35 -53 155 -96 219 -53 78 -137 146 -222 179 -83 33 -197 32 -272 -2 -81
-38 -163 -117 -204 -199 l-34 -69 -33 25 c-19 14 -73 48 -122 76 l-87 51 62
48 c287 224 645 412 978 513 208 63 540 121 722 125 l56 1 17 -72z m-2301
-524 c200 -53 378 -140 631 -309 244 -164 340 -248 712 -624 194 -196 353
-359 353 -362 0 -3 -32 -20 -70 -39 l-70 -34 -41 40 c-22 21 -138 142 -257
267 -403 423 -716 675 -1026 827 -148 71 -230 99 -254 83 -30 -19 -19 -404 23
-823 20 -190 38 -352 40 -361 3 -8 25 -25 49 -36 l43 -21 12 -99 c31 -253 83
-480 172 -747 27 -82 54 -156 58 -164 6 -10 -4 -42 -28 -93 -20 -43 -38 -78
-41 -78 -3 -1 -18 34 -34 77 -171 466 -194 571 -281 1321 -30 262 -71 577 -90
701 -42 274 -55 378 -55 447 0 51 1 53 27 53 14 0 72 -12 127 -26z m1225 -79
c30 -15 76 -49 102 -76 50 -52 119 -176 119 -215 0 -21 -5 -24 -42 -24 -24 0
-53 -3 -65 -6 -21 -6 -23 -3 -23 28 0 85 -63 183 -136 214 -44 18 -116 18
-162 -1 -49 -21 -106 -77 -128 -128 -10 -23 -19 -44 -20 -46 -2 -2 -19 7 -39
19 -39 24 -39 31 -4 101 76 151 250 210 398 134z m3610 -33 l44 -38 -107 -70
c-129 -82 -305 -208 -436 -311 -103 -82 -581 -516 -777 -707 l-123 -119 -70
28 c-38 15 -70 31 -70 35 0 10 338 340 539 525 216 200 410 358 613 498 127
88 313 197 336 197 4 0 27 -17 51 -38z m-3659 -141 c39 -28 57 -69 73 -161
l14 -84 -36 -48 c-20 -26 -40 -47 -46 -47 -5 0 -57 41 -115 93 l-105 93 3 44
c3 55 26 88 83 117 49 26 88 24 129 -7z m273 -226 l49 -6 -7 -52 c-4 -29 -8
-52 -9 -53 -8 -4 -214 -74 -219 -74 -16 0 -5 19 29 51 44 43 64 79 64 119 0
26 3 30 23 26 12 -3 44 -8 70 -11z m-1035 -142 c55 -34 135 -108 325 -300 160
-162 251 -261 249 -271 -2 -10 -28 -62 -58 -116 l-56 -100 46 -87 c25 -47 46
-91 46 -96 0 -10 -321 -285 -339 -291 -5 -2 -16 28 -25 65 -37 165 -86 417
-86 442 0 30 18 41 71 41 44 0 41 12 -16 53 -37 25 -57 48 -60 65 -16 75 -29
105 -61 137 -42 42 -57 45 -50 8 2 -16 8 -97 11 -182 l7 -154 -82 7 c-45 4
-89 10 -98 13 -23 9 -10 363 22 608 14 105 26 196 26 204 0 21 46 5 128 -46z
m4312 50 c0 -5 11 -79 25 -167 14 -87 30 -209 35 -270 12 -131 13 -373 3 -379
-5 -3 -48 -8 -97 -12 l-89 -7 7 186 c4 112 3 186 -3 186 -14 0 -62 -60 -76
-95 -7 -16 -16 -51 -19 -77 -6 -43 -11 -49 -67 -86 l-60 -39 60 -7 c48 -6 61
-11 61 -24 0 -63 -61 -360 -100 -485 l-21 -68 -67 62 c-37 33 -118 100 -179
146 -62 47 -113 90 -113 96 0 5 44 62 98 126 128 150 164 201 206 292 44 92
62 161 78 296 11 100 14 107 50 148 42 48 105 97 194 150 59 35 74 41 74 28z
m-1770 -27 c159 -21 297 -49 428 -87 113 -32 259 -86 266 -98 3 -4 -15 -27
-39 -51 l-44 -43 -103 31 c-392 120 -752 161 -1153 132 -262 -20 -628 -83
-788 -136 l-80 -27 -49 51 c-26 28 -48 55 -48 60 0 5 27 21 60 35 141 62 467
128 740 151 119 10 691 -3 810 -18z m-140 -671 c293 -48 592 -172 892 -371
101 -67 405 -339 537 -480 268 -286 417 -558 510 -928 21 -84 20 -96 -7 -96
-35 0 -286 -91 -396 -144 -64 -30 -164 -83 -223 -119 -59 -35 -148 -86 -198
-112 l-90 -48 66 69 c159 164 240 326 309 612 l11 42 69 -6 c39 -4 70 -3 70 1
0 20 -239 240 -413 381 l-188 153 -52 -15 c-251 -73 -480 -213 -608 -374 -134
-168 -223 -483 -207 -733 15 -234 212 -367 542 -367 179 0 298 45 614 234 118
70 263 152 323 182 124 62 330 134 392 137 l42 2 14 -143 c11 -115 12 -145 2
-152 -7 -4 -50 -10 -94 -12 -45 -3 -120 -16 -167 -29 l-85 -23 40 -12 c39 -12
39 -12 -39 -13 l-78 -1 59 -63 c33 -35 65 -78 72 -95 l13 -32 129 0 c71 0 129
-3 129 -7 0 -28 -58 -181 -85 -224 -32 -50 -161 -189 -177 -189 -4 0 -51 11
-104 25 -53 14 -106 25 -117 25 -19 0 -19 2 -7 14 8 7 51 34 95 60 45 26 71
46 59 46 -38 0 -269 -30 -339 -44 -119 -25 -351 -115 -369 -144 -3 -5 74 -12
172 -15 97 -3 213 -11 257 -17 90 -12 193 -39 201 -51 10 -17 -176 -162 -311
-241 -151 -90 -439 -232 -600 -296 -329 -131 -672 -202 -975 -202 -315 0 -686
80 -1015 220 -118 50 -470 224 -537 266 -25 16 -83 52 -128 79 -45 28 -92 63
-104 78 -11 15 -34 43 -50 63 -16 19 -26 37 -23 40 12 12 147 43 235 53 50 6
155 14 232 18 77 3 143 10 146 15 6 10 -142 80 -242 114 -86 28 -241 56 -292
52 l-37 -3 53 -38 c28 -21 52 -42 52 -45 0 -4 -67 -22 -150 -41 l-150 -34 -47
43 c-65 59 -128 133 -160 187 -25 43 -73 163 -73 183 0 6 42 10 98 10 142 0
166 6 184 44 9 17 37 55 63 84 l47 52 -64 0 c-73 0 -109 14 -64 26 l29 7 -24
13 c-34 17 -180 44 -243 44 -28 0 -56 4 -63 8 -8 5 -9 31 -2 97 9 93 29 205
35 205 2 0 50 -11 107 -24 188 -45 310 -101 597 -276 262 -160 367 -210 515
-243 316 -72 615 22 681 213 23 69 24 204 1 310 -8 41 -21 107 -27 145 -16
101 -65 240 -112 320 -55 92 -193 234 -294 301 -119 79 -355 184 -414 184 -31
0 -279 -209 -434 -367 l-155 -158 54 -3 c50 -3 55 -5 61 -30 12 -56 74 -241
108 -321 54 -127 121 -227 226 -333 53 -54 93 -98 90 -98 -4 0 -74 43 -155 96
-346 223 -545 318 -760 364 -33 7 -63 16 -68 20 -9 8 42 192 90 319 64 173
178 388 296 559 l50 73 26 -24 c108 -101 262 -60 310 82 17 52 14 127 -9 170
l-19 39 67 65 c151 147 356 287 592 406 316 158 579 215 935 205 83 -2 193
-11 245 -19z m2175 -222 c-30 -254 -69 -441 -125 -613 -27 -80 -110 -296 -143
-370 l-25 -55 -27 56 -28 56 36 84 c83 197 167 523 197 769 20 169 15 156 73
188 29 15 54 27 55 26 2 -1 -4 -65 -13 -141z m-4595 1 l35 -5 18 -111 c27
-166 78 -355 127 -473 12 -29 10 -35 -55 -133 -37 -57 -71 -100 -74 -95 -11
12 -96 282 -126 398 -27 103 -75 367 -75 412 0 25 1 25 58 19 31 -4 73 -9 92
-12z m4380 -3 c0 -41 -51 -319 -76 -415 -23 -85 -128 -394 -139 -404 -1 -2
-35 43 -74 99 l-70 102 18 36 c35 68 108 316 131 441 12 69 27 130 32 137 5 7
33 14 61 16 119 8 117 8 117 -12z m-4081 -467 c2 -2 -6 -15 -18 -30 l-21 -26
-8 23 c-5 13 -13 34 -17 47 l-7 23 34 -17 c18 -9 35 -18 37 -20z m209 -100
c57 -39 3 -114 -82 -114 -37 0 -76 36 -76 71 0 48 108 78 158 43z m456 -796
c3 -62 20 -189 36 -283 36 -202 64 -404 57 -411 -7 -7 -108 40 -170 79 -127
82 -208 181 -257 314 -33 91 -70 259 -70 317 l0 33 138 26 c75 15 146 28 157
31 11 2 38 4 61 5 l41 1 7 -112z m2586 72 c47 -11 90 -22 96 -24 8 -3 5 -40
-8 -123 -48 -310 -140 -461 -347 -571 -69 -37 -81 -41 -81 -25 0 10 11 178 25
373 14 195 25 366 25 379 l0 24 103 -6 c56 -3 140 -15 187 -27z m-2204 -288
c64 -63 114 -139 169 -255 44 -93 100 -246 92 -253 -12 -12 -184 -25 -261 -19
-77 5 -246 32 -254 39 -9 9 105 454 139 543 8 22 10 23 37 9 15 -8 50 -37 78
-64z m1694 -44 c79 -231 120 -358 126 -397 6 -37 5 -39 -27 -50 -68 -21 -187
-34 -331 -35 -80 -1 -150 2 -154 7 -23 23 48 231 124 362 44 77 185 235 209
235 6 0 30 -55 53 -122z m-2659 -1654 c60 -18 169 -74 169 -87 0 -5 -24 -6
-52 -2 -112 14 -293 -49 -391 -136 l-47 -41 -86 74 c-47 40 -95 80 -106 89
-16 12 -17 17 -6 26 19 16 153 62 223 78 86 19 230 18 296 -1z m479 -112 l155
-77 48 -143 c48 -142 141 -491 134 -499 -2 -2 -46 12 -97 30 l-94 34 -13 66
c-17 82 -74 248 -117 342 -18 39 -58 105 -89 148 -31 43 -62 87 -68 99 -16 29
-29 78 -21 77 4 0 77 -35 162 -77z m-253 -113 c37 -18 93 -73 93 -91 0 -3 -11
-9 -24 -12 -38 -9 -119 -79 -168 -144 l-45 -60 -152 101 -152 101 23 17 c31
24 143 79 193 95 66 21 181 17 232 -7z m208 -301 c21 -57 46 -124 56 -150 l18
-47 -22 8 c-12 5 -76 32 -142 61 -66 28 -126 54 -132 57 -19 8 -16 20 15 60
27 37 134 113 157 113 7 0 30 -46 50 -102z"/>
<path d="M3425 4650 c-213 -24 -373 -167 -426 -380 -22 -87 -17 -241 10 -330
27 -90 85 -201 145 -278 55 -71 212 -225 288 -281 l57 -43 58 47 c164 132 311
302 381 442 91 181 97 404 14 557 -100 185 -310 291 -527 266z m208 -150 c205
-77 300 -304 207 -497 -49 -103 -130 -167 -250 -198 -170 -44 -350 33 -435
187 -28 49 -30 60 -30 158 0 96 2 110 28 158 54 103 145 180 246 209 61 17
162 10 234 -17z"/>
<path d="M3393 4416 c-64 -30 -129 -94 -155 -154 -28 -63 -28 -156 1 -215 34
-71 125 -146 209 -171 l22 -7 0 130 0 131 -39 0 c-67 0 -101 11 -101 31 0 17
8 19 70 19 l70 0 0 130 c0 97 -3 130 -12 130 -7 0 -36 -11 -65 -24z"/>
<path d="M3540 4311 l0 -131 70 0 c62 0 70 -2 70 -19 0 -16 -11 -19 -70 -25
l-70 -7 0 -130 c0 -144 -2 -141 69 -109 71 33 118 76 150 142 26 51 31 73 31
132 0 85 -21 135 -74 187 -39 37 -101 73 -148 84 l-28 7 0 -131z"/>
<path d="M3475 2303 c-11 -2 -57 -11 -103 -19 l-83 -17 3 -60 3 -61 50 -29
c28 -16 73 -46 101 -68 28 -21 55 -39 59 -39 5 0 31 17 59 38 28 21 75 51 104
67 50 27 52 30 52 71 0 23 2 49 5 57 10 24 -188 72 -250 60z m142 -36 c12 -12
-3 -17 -69 -24 -74 -6 -165 4 -151 18 22 22 198 27 220 6z"/>
<path d="M3172 2011 c-8 -4 -12 -21 -10 -37 2 -23 8 -29 27 -29 31 0 50 28 35
53 -13 20 -34 25 -52 13z"/>
<path d="M3824 1999 c-23 -25 -9 -53 29 -57 21 -3 28 2 33 24 5 20 2 31 -11
41 -25 17 -29 17 -51 -8z"/>
<path d="M3490 1941 c-15 -57 -44 -88 -119 -125 -156 -78 -213 -82 -366 -23
-78 30 -200 59 -185 44 16 -16 312 -140 356 -149 80 -16 197 18 304 87 24 16
27 15 85 -20 85 -51 150 -68 248 -63 86 4 71 -2 347 127 l45 21 -45 -6 c-25
-3 -85 -22 -135 -42 -117 -47 -189 -52 -282 -22 -141 46 -208 98 -219 171 -8
50 -20 50 -34 0z"/>
<path d="M2844 1924 c27 -25 58 -49 68 -55 17 -9 18 -8 10 8 -20 36 -94 94
-119 93 -4 -1 14 -21 41 -46z"/>
<path d="M4195 1948 c-28 -15 -65 -50 -77 -72 -10 -18 25 3 102 64 28 22 10
27 -25 8z"/>
<path d="M3790 1553 c-176 -80 -361 -83 -530 -8 -52 24 -54 24 -30 4 42 -37
141 -78 218 -91 97 -16 190 0 297 51 123 60 162 98 45 44z"/>
</g>
</svg>
